%TF.GenerationSoftware,KiCad,Pcbnew,10.0.0*%
%TF.CreationDate,2026-06-29T16:39:17+05:30*%
%TF.ProjectId,attiny85,61747469-6e79-4383-952e-6b696361645f,rev?*%
%TF.SameCoordinates,Original*%
%TF.FileFunction,Legend,Top*%
%TF.FilePolarity,Positive*%
%FSLAX46Y46*%
G04 Gerber Fmt 4.6, Leading zero omitted, Abs format (unit mm)*
G04 Created by KiCad (PCBNEW 10.0.0) date 2026-06-29 16:39:17*
%MOMM*%
%LPD*%
G01*
G04 APERTURE LIST*
%ADD10C,0.150000*%
%ADD11C,0.120000*%
%ADD12C,0.127000*%
%ADD13C,0.200000*%
G04 APERTURE END LIST*
D10*
X105446905Y-88054819D02*
X105446905Y-87054819D01*
X105446905Y-87054819D02*
X105685000Y-87054819D01*
X105685000Y-87054819D02*
X105827857Y-87102438D01*
X105827857Y-87102438D02*
X105923095Y-87197676D01*
X105923095Y-87197676D02*
X105970714Y-87292914D01*
X105970714Y-87292914D02*
X106018333Y-87483390D01*
X106018333Y-87483390D02*
X106018333Y-87626247D01*
X106018333Y-87626247D02*
X105970714Y-87816723D01*
X105970714Y-87816723D02*
X105923095Y-87911961D01*
X105923095Y-87911961D02*
X105827857Y-88007200D01*
X105827857Y-88007200D02*
X105685000Y-88054819D01*
X105685000Y-88054819D02*
X105446905Y-88054819D01*
X106970714Y-88054819D02*
X106399286Y-88054819D01*
X106685000Y-88054819D02*
X106685000Y-87054819D01*
X106685000Y-87054819D02*
X106589762Y-87197676D01*
X106589762Y-87197676D02*
X106494524Y-87292914D01*
X106494524Y-87292914D02*
X106399286Y-87340533D01*
X128051667Y-74804819D02*
X128051667Y-73804819D01*
X128051667Y-73804819D02*
X128432619Y-73804819D01*
X128432619Y-73804819D02*
X128527857Y-73852438D01*
X128527857Y-73852438D02*
X128575476Y-73900057D01*
X128575476Y-73900057D02*
X128623095Y-73995295D01*
X128623095Y-73995295D02*
X128623095Y-74138152D01*
X128623095Y-74138152D02*
X128575476Y-74233390D01*
X128575476Y-74233390D02*
X128527857Y-74281009D01*
X128527857Y-74281009D02*
X128432619Y-74328628D01*
X128432619Y-74328628D02*
X128051667Y-74328628D01*
X128956429Y-73804819D02*
X129194524Y-74804819D01*
X129194524Y-74804819D02*
X129385000Y-74090533D01*
X129385000Y-74090533D02*
X129575476Y-74804819D01*
X129575476Y-74804819D02*
X129813572Y-73804819D01*
X130765952Y-74804819D02*
X130432619Y-74328628D01*
X130194524Y-74804819D02*
X130194524Y-73804819D01*
X130194524Y-73804819D02*
X130575476Y-73804819D01*
X130575476Y-73804819D02*
X130670714Y-73852438D01*
X130670714Y-73852438D02*
X130718333Y-73900057D01*
X130718333Y-73900057D02*
X130765952Y-73995295D01*
X130765952Y-73995295D02*
X130765952Y-74138152D01*
X130765952Y-74138152D02*
X130718333Y-74233390D01*
X130718333Y-74233390D02*
X130670714Y-74281009D01*
X130670714Y-74281009D02*
X130575476Y-74328628D01*
X130575476Y-74328628D02*
X130194524Y-74328628D01*
X122696905Y-74804819D02*
X122696905Y-73804819D01*
X122696905Y-73804819D02*
X123077857Y-73804819D01*
X123077857Y-73804819D02*
X123173095Y-73852438D01*
X123173095Y-73852438D02*
X123220714Y-73900057D01*
X123220714Y-73900057D02*
X123268333Y-73995295D01*
X123268333Y-73995295D02*
X123268333Y-74138152D01*
X123268333Y-74138152D02*
X123220714Y-74233390D01*
X123220714Y-74233390D02*
X123173095Y-74281009D01*
X123173095Y-74281009D02*
X123077857Y-74328628D01*
X123077857Y-74328628D02*
X122696905Y-74328628D01*
X124030238Y-74281009D02*
X124173095Y-74328628D01*
X124173095Y-74328628D02*
X124220714Y-74376247D01*
X124220714Y-74376247D02*
X124268333Y-74471485D01*
X124268333Y-74471485D02*
X124268333Y-74614342D01*
X124268333Y-74614342D02*
X124220714Y-74709580D01*
X124220714Y-74709580D02*
X124173095Y-74757200D01*
X124173095Y-74757200D02*
X124077857Y-74804819D01*
X124077857Y-74804819D02*
X123696905Y-74804819D01*
X123696905Y-74804819D02*
X123696905Y-73804819D01*
X123696905Y-73804819D02*
X124030238Y-73804819D01*
X124030238Y-73804819D02*
X124125476Y-73852438D01*
X124125476Y-73852438D02*
X124173095Y-73900057D01*
X124173095Y-73900057D02*
X124220714Y-73995295D01*
X124220714Y-73995295D02*
X124220714Y-74090533D01*
X124220714Y-74090533D02*
X124173095Y-74185771D01*
X124173095Y-74185771D02*
X124125476Y-74233390D01*
X124125476Y-74233390D02*
X124030238Y-74281009D01*
X124030238Y-74281009D02*
X123696905Y-74281009D01*
X125220714Y-74804819D02*
X124649286Y-74804819D01*
X124935000Y-74804819D02*
X124935000Y-73804819D01*
X124935000Y-73804819D02*
X124839762Y-73947676D01*
X124839762Y-73947676D02*
X124744524Y-74042914D01*
X124744524Y-74042914D02*
X124649286Y-74090533D01*
X105446905Y-85904819D02*
X105446905Y-84904819D01*
X105446905Y-84904819D02*
X105685000Y-84904819D01*
X105685000Y-84904819D02*
X105827857Y-84952438D01*
X105827857Y-84952438D02*
X105923095Y-85047676D01*
X105923095Y-85047676D02*
X105970714Y-85142914D01*
X105970714Y-85142914D02*
X106018333Y-85333390D01*
X106018333Y-85333390D02*
X106018333Y-85476247D01*
X106018333Y-85476247D02*
X105970714Y-85666723D01*
X105970714Y-85666723D02*
X105923095Y-85761961D01*
X105923095Y-85761961D02*
X105827857Y-85857200D01*
X105827857Y-85857200D02*
X105685000Y-85904819D01*
X105685000Y-85904819D02*
X105446905Y-85904819D01*
X106399286Y-85000057D02*
X106446905Y-84952438D01*
X106446905Y-84952438D02*
X106542143Y-84904819D01*
X106542143Y-84904819D02*
X106780238Y-84904819D01*
X106780238Y-84904819D02*
X106875476Y-84952438D01*
X106875476Y-84952438D02*
X106923095Y-85000057D01*
X106923095Y-85000057D02*
X106970714Y-85095295D01*
X106970714Y-85095295D02*
X106970714Y-85190533D01*
X106970714Y-85190533D02*
X106923095Y-85333390D01*
X106923095Y-85333390D02*
X106351667Y-85904819D01*
X106351667Y-85904819D02*
X106970714Y-85904819D01*
X116018333Y-77154819D02*
X115685000Y-76678628D01*
X115446905Y-77154819D02*
X115446905Y-76154819D01*
X115446905Y-76154819D02*
X115827857Y-76154819D01*
X115827857Y-76154819D02*
X115923095Y-76202438D01*
X115923095Y-76202438D02*
X115970714Y-76250057D01*
X115970714Y-76250057D02*
X116018333Y-76345295D01*
X116018333Y-76345295D02*
X116018333Y-76488152D01*
X116018333Y-76488152D02*
X115970714Y-76583390D01*
X115970714Y-76583390D02*
X115923095Y-76631009D01*
X115923095Y-76631009D02*
X115827857Y-76678628D01*
X115827857Y-76678628D02*
X115446905Y-76678628D01*
X116875476Y-76488152D02*
X116875476Y-77154819D01*
X116637381Y-76107200D02*
X116399286Y-76821485D01*
X116399286Y-76821485D02*
X117018333Y-76821485D01*
X116018333Y-80204819D02*
X115685000Y-79728628D01*
X115446905Y-80204819D02*
X115446905Y-79204819D01*
X115446905Y-79204819D02*
X115827857Y-79204819D01*
X115827857Y-79204819D02*
X115923095Y-79252438D01*
X115923095Y-79252438D02*
X115970714Y-79300057D01*
X115970714Y-79300057D02*
X116018333Y-79395295D01*
X116018333Y-79395295D02*
X116018333Y-79538152D01*
X116018333Y-79538152D02*
X115970714Y-79633390D01*
X115970714Y-79633390D02*
X115923095Y-79681009D01*
X115923095Y-79681009D02*
X115827857Y-79728628D01*
X115827857Y-79728628D02*
X115446905Y-79728628D01*
X116923095Y-79204819D02*
X116446905Y-79204819D01*
X116446905Y-79204819D02*
X116399286Y-79681009D01*
X116399286Y-79681009D02*
X116446905Y-79633390D01*
X116446905Y-79633390D02*
X116542143Y-79585771D01*
X116542143Y-79585771D02*
X116780238Y-79585771D01*
X116780238Y-79585771D02*
X116875476Y-79633390D01*
X116875476Y-79633390D02*
X116923095Y-79681009D01*
X116923095Y-79681009D02*
X116970714Y-79776247D01*
X116970714Y-79776247D02*
X116970714Y-80014342D01*
X116970714Y-80014342D02*
X116923095Y-80109580D01*
X116923095Y-80109580D02*
X116875476Y-80157200D01*
X116875476Y-80157200D02*
X116780238Y-80204819D01*
X116780238Y-80204819D02*
X116542143Y-80204819D01*
X116542143Y-80204819D02*
X116446905Y-80157200D01*
X116446905Y-80157200D02*
X116399286Y-80109580D01*
X105928333Y-77154819D02*
X105595000Y-76678628D01*
X105356905Y-77154819D02*
X105356905Y-76154819D01*
X105356905Y-76154819D02*
X105737857Y-76154819D01*
X105737857Y-76154819D02*
X105833095Y-76202438D01*
X105833095Y-76202438D02*
X105880714Y-76250057D01*
X105880714Y-76250057D02*
X105928333Y-76345295D01*
X105928333Y-76345295D02*
X105928333Y-76488152D01*
X105928333Y-76488152D02*
X105880714Y-76583390D01*
X105880714Y-76583390D02*
X105833095Y-76631009D01*
X105833095Y-76631009D02*
X105737857Y-76678628D01*
X105737857Y-76678628D02*
X105356905Y-76678628D01*
X106880714Y-77154819D02*
X106309286Y-77154819D01*
X106595000Y-77154819D02*
X106595000Y-76154819D01*
X106595000Y-76154819D02*
X106499762Y-76297676D01*
X106499762Y-76297676D02*
X106404524Y-76392914D01*
X106404524Y-76392914D02*
X106309286Y-76440533D01*
X105928333Y-80154819D02*
X105595000Y-79678628D01*
X105356905Y-80154819D02*
X105356905Y-79154819D01*
X105356905Y-79154819D02*
X105737857Y-79154819D01*
X105737857Y-79154819D02*
X105833095Y-79202438D01*
X105833095Y-79202438D02*
X105880714Y-79250057D01*
X105880714Y-79250057D02*
X105928333Y-79345295D01*
X105928333Y-79345295D02*
X105928333Y-79488152D01*
X105928333Y-79488152D02*
X105880714Y-79583390D01*
X105880714Y-79583390D02*
X105833095Y-79631009D01*
X105833095Y-79631009D02*
X105737857Y-79678628D01*
X105737857Y-79678628D02*
X105356905Y-79678628D01*
X106261667Y-79154819D02*
X106880714Y-79154819D01*
X106880714Y-79154819D02*
X106547381Y-79535771D01*
X106547381Y-79535771D02*
X106690238Y-79535771D01*
X106690238Y-79535771D02*
X106785476Y-79583390D01*
X106785476Y-79583390D02*
X106833095Y-79631009D01*
X106833095Y-79631009D02*
X106880714Y-79726247D01*
X106880714Y-79726247D02*
X106880714Y-79964342D01*
X106880714Y-79964342D02*
X106833095Y-80059580D01*
X106833095Y-80059580D02*
X106785476Y-80107200D01*
X106785476Y-80107200D02*
X106690238Y-80154819D01*
X106690238Y-80154819D02*
X106404524Y-80154819D01*
X106404524Y-80154819D02*
X106309286Y-80107200D01*
X106309286Y-80107200D02*
X106261667Y-80059580D01*
X105918333Y-83254819D02*
X105585000Y-82778628D01*
X105346905Y-83254819D02*
X105346905Y-82254819D01*
X105346905Y-82254819D02*
X105727857Y-82254819D01*
X105727857Y-82254819D02*
X105823095Y-82302438D01*
X105823095Y-82302438D02*
X105870714Y-82350057D01*
X105870714Y-82350057D02*
X105918333Y-82445295D01*
X105918333Y-82445295D02*
X105918333Y-82588152D01*
X105918333Y-82588152D02*
X105870714Y-82683390D01*
X105870714Y-82683390D02*
X105823095Y-82731009D01*
X105823095Y-82731009D02*
X105727857Y-82778628D01*
X105727857Y-82778628D02*
X105346905Y-82778628D01*
X106299286Y-82350057D02*
X106346905Y-82302438D01*
X106346905Y-82302438D02*
X106442143Y-82254819D01*
X106442143Y-82254819D02*
X106680238Y-82254819D01*
X106680238Y-82254819D02*
X106775476Y-82302438D01*
X106775476Y-82302438D02*
X106823095Y-82350057D01*
X106823095Y-82350057D02*
X106870714Y-82445295D01*
X106870714Y-82445295D02*
X106870714Y-82540533D01*
X106870714Y-82540533D02*
X106823095Y-82683390D01*
X106823095Y-82683390D02*
X106251667Y-83254819D01*
X106251667Y-83254819D02*
X106870714Y-83254819D01*
%TO.C,J2*%
D11*
X133305000Y-88490000D02*
X138505000Y-88490000D01*
X133305000Y-75670000D02*
X135905000Y-75670000D01*
X138505000Y-75670000D02*
X138505000Y-77000000D01*
X135905000Y-75670000D02*
X135905000Y-78270000D01*
X138505000Y-78270000D02*
X138505000Y-88490000D01*
X137175000Y-75670000D02*
X138505000Y-75670000D01*
X133305000Y-75670000D02*
X133305000Y-88490000D01*
X135905000Y-78270000D02*
X138505000Y-78270000D01*
%TO.C,R4*%
X112915000Y-78070000D02*
X119455000Y-78070000D01*
X112915000Y-75330000D02*
X119455000Y-75330000D01*
X119455000Y-78070000D02*
X119455000Y-77740000D01*
X112915000Y-75660000D02*
X112915000Y-75330000D01*
X112915000Y-77740000D02*
X112915000Y-78070000D01*
X119455000Y-75330000D02*
X119455000Y-75660000D01*
%TO.C,D4*%
X126345000Y-75165000D02*
X122285000Y-75165000D01*
X126345000Y-77435000D02*
X126345000Y-75165000D01*
X122285000Y-77435000D02*
X126345000Y-77435000D01*
%TO.C,R5*%
X112915000Y-78680000D02*
X112915000Y-78350000D01*
X119455000Y-81090000D02*
X119455000Y-80760000D01*
X119455000Y-78350000D02*
X119455000Y-78680000D01*
X112915000Y-78350000D02*
X119455000Y-78350000D01*
X112915000Y-80760000D02*
X112915000Y-81090000D01*
X112915000Y-81090000D02*
X119455000Y-81090000D01*
%TO.C,R1*%
X109365000Y-78070000D02*
X109365000Y-77740000D01*
X102825000Y-78070000D02*
X109365000Y-78070000D01*
X102825000Y-75660000D02*
X102825000Y-75330000D01*
X102825000Y-77740000D02*
X102825000Y-78070000D01*
X109365000Y-75330000D02*
X109365000Y-75660000D01*
X102825000Y-75330000D02*
X109365000Y-75330000D01*
%TO.C,U1*%
X129445000Y-88500000D02*
X129445000Y-78220000D01*
X121655000Y-88560000D02*
X131935000Y-88560000D01*
X131935000Y-78160000D02*
X121655000Y-78160000D01*
X121655000Y-78160000D02*
X121655000Y-88560000D01*
X124145000Y-88500000D02*
X129445000Y-88500000D01*
X124145000Y-78220000D02*
X124145000Y-88500000D01*
X129445000Y-78220000D02*
X127795000Y-78220000D01*
X131935000Y-88560000D02*
X131935000Y-78160000D01*
X125795000Y-78220000D02*
X124145000Y-78220000D01*
X127795000Y-78220000D02*
G75*
G02*
X125795000Y-78220000I-1000000J0D01*
G01*
%TO.C,D3*%
X132045000Y-77435000D02*
X132045000Y-75165000D01*
X127985000Y-77435000D02*
X132045000Y-77435000D01*
X132045000Y-75165000D02*
X127985000Y-75165000D01*
%TO.C,D1*%
X107735000Y-86630000D02*
X104455000Y-86630000D01*
X107735000Y-88470000D02*
X107735000Y-86630000D01*
X104911000Y-86630000D02*
X104911000Y-88470000D01*
X104455000Y-88470000D02*
X107735000Y-88470000D01*
X108915000Y-87550000D02*
X107735000Y-87550000D01*
X105151000Y-86630000D02*
X105151000Y-88470000D01*
X105031000Y-86630000D02*
X105031000Y-88470000D01*
X103275000Y-87550000D02*
X104455000Y-87550000D01*
X104455000Y-86630000D02*
X104455000Y-88470000D01*
%TO.C,J1*%
D12*
X94972500Y-75955750D02*
X79922500Y-75955750D01*
X95722500Y-75955750D02*
X94972500Y-75955750D01*
X79922500Y-87955750D02*
X94972500Y-87955750D01*
X94972500Y-87955750D02*
X95722500Y-87955750D01*
X94972500Y-75955750D02*
X94972500Y-87955750D01*
X79922500Y-75955750D02*
X79922500Y-87955750D01*
D13*
X101222500Y-85455750D02*
G75*
G02*
X101022500Y-85455750I-100000J0D01*
G01*
X101022500Y-85455750D02*
G75*
G02*
X101222500Y-85455750I100000J0D01*
G01*
%TO.C,U2*%
D11*
X120135000Y-88560000D02*
X114125000Y-88560000D01*
X117885000Y-81740000D02*
X114125000Y-81740000D01*
X114125000Y-88560000D02*
X114125000Y-87300000D01*
X114125000Y-81740000D02*
X114125000Y-83000000D01*
%TO.C,R3*%
X109355000Y-78660000D02*
X109355000Y-78330000D01*
X109355000Y-78330000D02*
X102815000Y-78330000D01*
X109355000Y-81070000D02*
X102815000Y-81070000D01*
X102815000Y-78330000D02*
X102815000Y-78660000D01*
X102815000Y-81070000D02*
X102815000Y-80740000D01*
X109355000Y-80740000D02*
X109355000Y-81070000D01*
%TO.C,R2*%
X109355000Y-84170000D02*
X102815000Y-84170000D01*
X109355000Y-81760000D02*
X109355000Y-81430000D01*
X102815000Y-84170000D02*
X102815000Y-83840000D01*
X109355000Y-83840000D02*
X109355000Y-84170000D01*
X109355000Y-81430000D02*
X102815000Y-81430000D01*
X102815000Y-81430000D02*
X102815000Y-81760000D01*
%TO.C,D2*%
X103275000Y-85400000D02*
X104455000Y-85400000D01*
X104911000Y-84480000D02*
X104911000Y-86320000D01*
X105031000Y-84480000D02*
X105031000Y-86320000D01*
X104455000Y-86320000D02*
X107735000Y-86320000D01*
X108915000Y-85400000D02*
X107735000Y-85400000D01*
X107735000Y-84480000D02*
X104455000Y-84480000D01*
X107735000Y-86320000D02*
X107735000Y-84480000D01*
X105151000Y-84480000D02*
X105151000Y-86320000D01*
X104455000Y-84480000D02*
X104455000Y-86320000D01*
%TD*%
M02*
