%TF.GenerationSoftware,KiCad,Pcbnew,10.0.0*%
%TF.CreationDate,2026-06-29T16:39:25+05:30*%
%TF.ProjectId,attiny85,61747469-6e79-4383-952e-6b696361645f,rev?*%
%TF.SameCoordinates,Original*%
%TF.FileFunction,Drillmap*%
%TF.FilePolarity,Positive*%
%FSLAX45Y45*%
G04 Gerber Fmt 4.5, Leading zero omitted, Abs format (unit mm)*
G04 Created by KiCad (PCBNEW 10.0.0) date 2026-06-29 16:39:25*
%MOMM*%
%LPD*%
G01*
G04 APERTURE LIST*
%ADD10C,0.100000*%
%ADD11C,0.200000*%
%ADD12C,0.125000*%
G04 APERTURE END LIST*
D10*
X14582500Y-7808750D02*
X13978500Y-7520000D01*
X13978500Y-8880000D02*
X14592500Y-8551250D01*
X14592500Y-8551250D02*
X14582500Y-7808750D01*
X13978500Y-8880000D02*
G75*
G02*
X13828500Y-9030000I-150000J0D01*
G01*
X13828500Y-7370000D02*
G75*
G02*
X13978500Y-7520000I0J-150000D01*
G01*
X9668500Y-9030000D02*
X13828500Y-9030000D01*
X13828500Y-7370000D02*
X9668500Y-7370000D01*
X9668500Y-9030000D02*
G75*
G02*
X9518500Y-8880000I0J150000D01*
G01*
X9518500Y-7520000D02*
G75*
G02*
X9668500Y-7370000I150000J0D01*
G01*
X9518500Y-8880000D02*
X9518500Y-7520000D01*
D11*
D12*
X9709750Y-7908075D02*
X9834750Y-8033075D01*
X9834750Y-7908075D02*
X9709750Y-8033075D01*
X9709750Y-8358075D02*
X9834750Y-8483075D01*
X9834750Y-8358075D02*
X9709750Y-8483075D01*
D11*
X9774277Y-9346484D02*
X9774277Y-9146484D01*
X9774277Y-9146484D02*
X9821896Y-9146484D01*
X9821896Y-9146484D02*
X9850467Y-9156008D01*
X9850467Y-9156008D02*
X9869515Y-9175055D01*
X9869515Y-9175055D02*
X9879039Y-9194103D01*
X9879039Y-9194103D02*
X9888563Y-9232198D01*
X9888563Y-9232198D02*
X9888563Y-9260770D01*
X9888563Y-9260770D02*
X9879039Y-9298865D01*
X9879039Y-9298865D02*
X9869515Y-9317912D01*
X9869515Y-9317912D02*
X9850467Y-9336960D01*
X9850467Y-9336960D02*
X9821896Y-9346484D01*
X9821896Y-9346484D02*
X9774277Y-9346484D01*
X9974277Y-9346484D02*
X9974277Y-9213150D01*
X9974277Y-9251246D02*
X9983801Y-9232198D01*
X9983801Y-9232198D02*
X9993324Y-9222674D01*
X9993324Y-9222674D02*
X10012372Y-9213150D01*
X10012372Y-9213150D02*
X10031420Y-9213150D01*
X10098086Y-9346484D02*
X10098086Y-9213150D01*
X10098086Y-9146484D02*
X10088563Y-9156008D01*
X10088563Y-9156008D02*
X10098086Y-9165531D01*
X10098086Y-9165531D02*
X10107610Y-9156008D01*
X10107610Y-9156008D02*
X10098086Y-9146484D01*
X10098086Y-9146484D02*
X10098086Y-9165531D01*
X10221896Y-9346484D02*
X10202848Y-9336960D01*
X10202848Y-9336960D02*
X10193324Y-9317912D01*
X10193324Y-9317912D02*
X10193324Y-9146484D01*
X10326658Y-9346484D02*
X10307610Y-9336960D01*
X10307610Y-9336960D02*
X10298086Y-9317912D01*
X10298086Y-9317912D02*
X10298086Y-9146484D01*
X10555229Y-9346484D02*
X10555229Y-9146484D01*
X10555229Y-9146484D02*
X10621896Y-9289341D01*
X10621896Y-9289341D02*
X10688563Y-9146484D01*
X10688563Y-9146484D02*
X10688563Y-9346484D01*
X10869515Y-9346484D02*
X10869515Y-9241722D01*
X10869515Y-9241722D02*
X10859991Y-9222674D01*
X10859991Y-9222674D02*
X10840944Y-9213150D01*
X10840944Y-9213150D02*
X10802848Y-9213150D01*
X10802848Y-9213150D02*
X10783801Y-9222674D01*
X10869515Y-9336960D02*
X10850467Y-9346484D01*
X10850467Y-9346484D02*
X10802848Y-9346484D01*
X10802848Y-9346484D02*
X10783801Y-9336960D01*
X10783801Y-9336960D02*
X10774277Y-9317912D01*
X10774277Y-9317912D02*
X10774277Y-9298865D01*
X10774277Y-9298865D02*
X10783801Y-9279817D01*
X10783801Y-9279817D02*
X10802848Y-9270293D01*
X10802848Y-9270293D02*
X10850467Y-9270293D01*
X10850467Y-9270293D02*
X10869515Y-9260770D01*
X10964753Y-9213150D02*
X10964753Y-9413150D01*
X10964753Y-9222674D02*
X10983801Y-9213150D01*
X10983801Y-9213150D02*
X11021896Y-9213150D01*
X11021896Y-9213150D02*
X11040944Y-9222674D01*
X11040944Y-9222674D02*
X11050467Y-9232198D01*
X11050467Y-9232198D02*
X11059991Y-9251246D01*
X11059991Y-9251246D02*
X11059991Y-9308389D01*
X11059991Y-9308389D02*
X11050467Y-9327436D01*
X11050467Y-9327436D02*
X11040944Y-9336960D01*
X11040944Y-9336960D02*
X11021896Y-9346484D01*
X11021896Y-9346484D02*
X10983801Y-9346484D01*
X10983801Y-9346484D02*
X10964753Y-9336960D01*
X11145705Y-9327436D02*
X11155229Y-9336960D01*
X11155229Y-9336960D02*
X11145705Y-9346484D01*
X11145705Y-9346484D02*
X11136182Y-9336960D01*
X11136182Y-9336960D02*
X11145705Y-9327436D01*
X11145705Y-9327436D02*
X11145705Y-9346484D01*
X11145705Y-9222674D02*
X11155229Y-9232198D01*
X11155229Y-9232198D02*
X11145705Y-9241722D01*
X11145705Y-9241722D02*
X11136182Y-9232198D01*
X11136182Y-9232198D02*
X11145705Y-9222674D01*
X11145705Y-9222674D02*
X11145705Y-9241722D01*
D12*
X9388500Y-9612500D02*
X9513500Y-9737500D01*
X9513500Y-9612500D02*
X9388500Y-9737500D01*
D11*
X9879039Y-9766484D02*
X9764753Y-9766484D01*
X9821896Y-9766484D02*
X9821896Y-9566484D01*
X9821896Y-9566484D02*
X9802848Y-9595055D01*
X9802848Y-9595055D02*
X9783801Y-9614103D01*
X9783801Y-9614103D02*
X9764753Y-9623627D01*
X9964753Y-9747436D02*
X9974277Y-9756960D01*
X9974277Y-9756960D02*
X9964753Y-9766484D01*
X9964753Y-9766484D02*
X9955229Y-9756960D01*
X9955229Y-9756960D02*
X9964753Y-9747436D01*
X9964753Y-9747436D02*
X9964753Y-9766484D01*
X10050467Y-9585531D02*
X10059991Y-9576008D01*
X10059991Y-9576008D02*
X10079039Y-9566484D01*
X10079039Y-9566484D02*
X10126658Y-9566484D01*
X10126658Y-9566484D02*
X10145705Y-9576008D01*
X10145705Y-9576008D02*
X10155229Y-9585531D01*
X10155229Y-9585531D02*
X10164753Y-9604579D01*
X10164753Y-9604579D02*
X10164753Y-9623627D01*
X10164753Y-9623627D02*
X10155229Y-9652198D01*
X10155229Y-9652198D02*
X10040944Y-9766484D01*
X10040944Y-9766484D02*
X10164753Y-9766484D01*
X10345705Y-9566484D02*
X10250467Y-9566484D01*
X10250467Y-9566484D02*
X10240944Y-9661722D01*
X10240944Y-9661722D02*
X10250467Y-9652198D01*
X10250467Y-9652198D02*
X10269515Y-9642674D01*
X10269515Y-9642674D02*
X10317134Y-9642674D01*
X10317134Y-9642674D02*
X10336182Y-9652198D01*
X10336182Y-9652198D02*
X10345705Y-9661722D01*
X10345705Y-9661722D02*
X10355229Y-9680770D01*
X10355229Y-9680770D02*
X10355229Y-9728389D01*
X10355229Y-9728389D02*
X10345705Y-9747436D01*
X10345705Y-9747436D02*
X10336182Y-9756960D01*
X10336182Y-9756960D02*
X10317134Y-9766484D01*
X10317134Y-9766484D02*
X10269515Y-9766484D01*
X10269515Y-9766484D02*
X10250467Y-9756960D01*
X10250467Y-9756960D02*
X10240944Y-9747436D01*
X10479039Y-9566484D02*
X10498086Y-9566484D01*
X10498086Y-9566484D02*
X10517134Y-9576008D01*
X10517134Y-9576008D02*
X10526658Y-9585531D01*
X10526658Y-9585531D02*
X10536182Y-9604579D01*
X10536182Y-9604579D02*
X10545705Y-9642674D01*
X10545705Y-9642674D02*
X10545705Y-9690293D01*
X10545705Y-9690293D02*
X10536182Y-9728389D01*
X10536182Y-9728389D02*
X10526658Y-9747436D01*
X10526658Y-9747436D02*
X10517134Y-9756960D01*
X10517134Y-9756960D02*
X10498086Y-9766484D01*
X10498086Y-9766484D02*
X10479039Y-9766484D01*
X10479039Y-9766484D02*
X10459991Y-9756960D01*
X10459991Y-9756960D02*
X10450467Y-9747436D01*
X10450467Y-9747436D02*
X10440944Y-9728389D01*
X10440944Y-9728389D02*
X10431420Y-9690293D01*
X10431420Y-9690293D02*
X10431420Y-9642674D01*
X10431420Y-9642674D02*
X10440944Y-9604579D01*
X10440944Y-9604579D02*
X10450467Y-9585531D01*
X10450467Y-9585531D02*
X10459991Y-9576008D01*
X10459991Y-9576008D02*
X10479039Y-9566484D01*
X10631420Y-9766484D02*
X10631420Y-9633150D01*
X10631420Y-9652198D02*
X10640944Y-9642674D01*
X10640944Y-9642674D02*
X10659991Y-9633150D01*
X10659991Y-9633150D02*
X10688563Y-9633150D01*
X10688563Y-9633150D02*
X10707610Y-9642674D01*
X10707610Y-9642674D02*
X10717134Y-9661722D01*
X10717134Y-9661722D02*
X10717134Y-9766484D01*
X10717134Y-9661722D02*
X10726658Y-9642674D01*
X10726658Y-9642674D02*
X10745705Y-9633150D01*
X10745705Y-9633150D02*
X10774277Y-9633150D01*
X10774277Y-9633150D02*
X10793325Y-9642674D01*
X10793325Y-9642674D02*
X10802848Y-9661722D01*
X10802848Y-9661722D02*
X10802848Y-9766484D01*
X10898086Y-9766484D02*
X10898086Y-9633150D01*
X10898086Y-9652198D02*
X10907610Y-9642674D01*
X10907610Y-9642674D02*
X10926658Y-9633150D01*
X10926658Y-9633150D02*
X10955229Y-9633150D01*
X10955229Y-9633150D02*
X10974277Y-9642674D01*
X10974277Y-9642674D02*
X10983801Y-9661722D01*
X10983801Y-9661722D02*
X10983801Y-9766484D01*
X10983801Y-9661722D02*
X10993325Y-9642674D01*
X10993325Y-9642674D02*
X11012372Y-9633150D01*
X11012372Y-9633150D02*
X11040944Y-9633150D01*
X11040944Y-9633150D02*
X11059991Y-9642674D01*
X11059991Y-9642674D02*
X11069515Y-9661722D01*
X11069515Y-9661722D02*
X11069515Y-9766484D01*
X11459991Y-9556960D02*
X11288563Y-9814103D01*
X11717134Y-9566484D02*
X11736182Y-9566484D01*
X11736182Y-9566484D02*
X11755229Y-9576008D01*
X11755229Y-9576008D02*
X11764753Y-9585531D01*
X11764753Y-9585531D02*
X11774277Y-9604579D01*
X11774277Y-9604579D02*
X11783801Y-9642674D01*
X11783801Y-9642674D02*
X11783801Y-9690293D01*
X11783801Y-9690293D02*
X11774277Y-9728389D01*
X11774277Y-9728389D02*
X11764753Y-9747436D01*
X11764753Y-9747436D02*
X11755229Y-9756960D01*
X11755229Y-9756960D02*
X11736182Y-9766484D01*
X11736182Y-9766484D02*
X11717134Y-9766484D01*
X11717134Y-9766484D02*
X11698086Y-9756960D01*
X11698086Y-9756960D02*
X11688563Y-9747436D01*
X11688563Y-9747436D02*
X11679039Y-9728389D01*
X11679039Y-9728389D02*
X11669515Y-9690293D01*
X11669515Y-9690293D02*
X11669515Y-9642674D01*
X11669515Y-9642674D02*
X11679039Y-9604579D01*
X11679039Y-9604579D02*
X11688563Y-9585531D01*
X11688563Y-9585531D02*
X11698086Y-9576008D01*
X11698086Y-9576008D02*
X11717134Y-9566484D01*
X11869515Y-9747436D02*
X11879039Y-9756960D01*
X11879039Y-9756960D02*
X11869515Y-9766484D01*
X11869515Y-9766484D02*
X11859991Y-9756960D01*
X11859991Y-9756960D02*
X11869515Y-9747436D01*
X11869515Y-9747436D02*
X11869515Y-9766484D01*
X12002848Y-9566484D02*
X12021896Y-9566484D01*
X12021896Y-9566484D02*
X12040944Y-9576008D01*
X12040944Y-9576008D02*
X12050467Y-9585531D01*
X12050467Y-9585531D02*
X12059991Y-9604579D01*
X12059991Y-9604579D02*
X12069515Y-9642674D01*
X12069515Y-9642674D02*
X12069515Y-9690293D01*
X12069515Y-9690293D02*
X12059991Y-9728389D01*
X12059991Y-9728389D02*
X12050467Y-9747436D01*
X12050467Y-9747436D02*
X12040944Y-9756960D01*
X12040944Y-9756960D02*
X12021896Y-9766484D01*
X12021896Y-9766484D02*
X12002848Y-9766484D01*
X12002848Y-9766484D02*
X11983801Y-9756960D01*
X11983801Y-9756960D02*
X11974277Y-9747436D01*
X11974277Y-9747436D02*
X11964753Y-9728389D01*
X11964753Y-9728389D02*
X11955229Y-9690293D01*
X11955229Y-9690293D02*
X11955229Y-9642674D01*
X11955229Y-9642674D02*
X11964753Y-9604579D01*
X11964753Y-9604579D02*
X11974277Y-9585531D01*
X11974277Y-9585531D02*
X11983801Y-9576008D01*
X11983801Y-9576008D02*
X12002848Y-9566484D01*
X12240944Y-9633150D02*
X12240944Y-9766484D01*
X12193325Y-9556960D02*
X12145706Y-9699817D01*
X12145706Y-9699817D02*
X12269515Y-9699817D01*
X12355229Y-9766484D02*
X12393325Y-9766484D01*
X12393325Y-9766484D02*
X12412372Y-9756960D01*
X12412372Y-9756960D02*
X12421896Y-9747436D01*
X12421896Y-9747436D02*
X12440944Y-9718865D01*
X12440944Y-9718865D02*
X12450467Y-9680770D01*
X12450467Y-9680770D02*
X12450467Y-9604579D01*
X12450467Y-9604579D02*
X12440944Y-9585531D01*
X12440944Y-9585531D02*
X12431420Y-9576008D01*
X12431420Y-9576008D02*
X12412372Y-9566484D01*
X12412372Y-9566484D02*
X12374277Y-9566484D01*
X12374277Y-9566484D02*
X12355229Y-9576008D01*
X12355229Y-9576008D02*
X12345706Y-9585531D01*
X12345706Y-9585531D02*
X12336182Y-9604579D01*
X12336182Y-9604579D02*
X12336182Y-9652198D01*
X12336182Y-9652198D02*
X12345706Y-9671246D01*
X12345706Y-9671246D02*
X12355229Y-9680770D01*
X12355229Y-9680770D02*
X12374277Y-9690293D01*
X12374277Y-9690293D02*
X12412372Y-9690293D01*
X12412372Y-9690293D02*
X12431420Y-9680770D01*
X12431420Y-9680770D02*
X12440944Y-9671246D01*
X12440944Y-9671246D02*
X12450467Y-9652198D01*
X12526658Y-9585531D02*
X12536182Y-9576008D01*
X12536182Y-9576008D02*
X12555229Y-9566484D01*
X12555229Y-9566484D02*
X12602848Y-9566484D01*
X12602848Y-9566484D02*
X12621896Y-9576008D01*
X12621896Y-9576008D02*
X12631420Y-9585531D01*
X12631420Y-9585531D02*
X12640944Y-9604579D01*
X12640944Y-9604579D02*
X12640944Y-9623627D01*
X12640944Y-9623627D02*
X12631420Y-9652198D01*
X12631420Y-9652198D02*
X12517134Y-9766484D01*
X12517134Y-9766484D02*
X12640944Y-9766484D01*
X12717134Y-9566484D02*
X12717134Y-9604579D01*
X12793325Y-9566484D02*
X12793325Y-9604579D01*
X13088563Y-9842674D02*
X13079039Y-9833150D01*
X13079039Y-9833150D02*
X13059991Y-9804579D01*
X13059991Y-9804579D02*
X13050468Y-9785531D01*
X13050468Y-9785531D02*
X13040944Y-9756960D01*
X13040944Y-9756960D02*
X13031420Y-9709341D01*
X13031420Y-9709341D02*
X13031420Y-9671246D01*
X13031420Y-9671246D02*
X13040944Y-9623627D01*
X13040944Y-9623627D02*
X13050468Y-9595055D01*
X13050468Y-9595055D02*
X13059991Y-9576008D01*
X13059991Y-9576008D02*
X13079039Y-9547436D01*
X13079039Y-9547436D02*
X13088563Y-9537912D01*
X13155229Y-9585531D02*
X13164753Y-9576008D01*
X13164753Y-9576008D02*
X13183801Y-9566484D01*
X13183801Y-9566484D02*
X13231420Y-9566484D01*
X13231420Y-9566484D02*
X13250468Y-9576008D01*
X13250468Y-9576008D02*
X13259991Y-9585531D01*
X13259991Y-9585531D02*
X13269515Y-9604579D01*
X13269515Y-9604579D02*
X13269515Y-9623627D01*
X13269515Y-9623627D02*
X13259991Y-9652198D01*
X13259991Y-9652198D02*
X13145706Y-9766484D01*
X13145706Y-9766484D02*
X13269515Y-9766484D01*
X13507610Y-9766484D02*
X13507610Y-9566484D01*
X13593325Y-9766484D02*
X13593325Y-9661722D01*
X13593325Y-9661722D02*
X13583801Y-9642674D01*
X13583801Y-9642674D02*
X13564753Y-9633150D01*
X13564753Y-9633150D02*
X13536182Y-9633150D01*
X13536182Y-9633150D02*
X13517134Y-9642674D01*
X13517134Y-9642674D02*
X13507610Y-9652198D01*
X13717134Y-9766484D02*
X13698087Y-9756960D01*
X13698087Y-9756960D02*
X13688563Y-9747436D01*
X13688563Y-9747436D02*
X13679039Y-9728389D01*
X13679039Y-9728389D02*
X13679039Y-9671246D01*
X13679039Y-9671246D02*
X13688563Y-9652198D01*
X13688563Y-9652198D02*
X13698087Y-9642674D01*
X13698087Y-9642674D02*
X13717134Y-9633150D01*
X13717134Y-9633150D02*
X13745706Y-9633150D01*
X13745706Y-9633150D02*
X13764753Y-9642674D01*
X13764753Y-9642674D02*
X13774277Y-9652198D01*
X13774277Y-9652198D02*
X13783801Y-9671246D01*
X13783801Y-9671246D02*
X13783801Y-9728389D01*
X13783801Y-9728389D02*
X13774277Y-9747436D01*
X13774277Y-9747436D02*
X13764753Y-9756960D01*
X13764753Y-9756960D02*
X13745706Y-9766484D01*
X13745706Y-9766484D02*
X13717134Y-9766484D01*
X13898087Y-9766484D02*
X13879039Y-9756960D01*
X13879039Y-9756960D02*
X13869515Y-9737912D01*
X13869515Y-9737912D02*
X13869515Y-9566484D01*
X14050468Y-9756960D02*
X14031420Y-9766484D01*
X14031420Y-9766484D02*
X13993325Y-9766484D01*
X13993325Y-9766484D02*
X13974277Y-9756960D01*
X13974277Y-9756960D02*
X13964753Y-9737912D01*
X13964753Y-9737912D02*
X13964753Y-9661722D01*
X13964753Y-9661722D02*
X13974277Y-9642674D01*
X13974277Y-9642674D02*
X13993325Y-9633150D01*
X13993325Y-9633150D02*
X14031420Y-9633150D01*
X14031420Y-9633150D02*
X14050468Y-9642674D01*
X14050468Y-9642674D02*
X14059991Y-9661722D01*
X14059991Y-9661722D02*
X14059991Y-9680770D01*
X14059991Y-9680770D02*
X13964753Y-9699817D01*
X14136182Y-9756960D02*
X14155230Y-9766484D01*
X14155230Y-9766484D02*
X14193325Y-9766484D01*
X14193325Y-9766484D02*
X14212372Y-9756960D01*
X14212372Y-9756960D02*
X14221896Y-9737912D01*
X14221896Y-9737912D02*
X14221896Y-9728389D01*
X14221896Y-9728389D02*
X14212372Y-9709341D01*
X14212372Y-9709341D02*
X14193325Y-9699817D01*
X14193325Y-9699817D02*
X14164753Y-9699817D01*
X14164753Y-9699817D02*
X14145706Y-9690293D01*
X14145706Y-9690293D02*
X14136182Y-9671246D01*
X14136182Y-9671246D02*
X14136182Y-9661722D01*
X14136182Y-9661722D02*
X14145706Y-9642674D01*
X14145706Y-9642674D02*
X14164753Y-9633150D01*
X14164753Y-9633150D02*
X14193325Y-9633150D01*
X14193325Y-9633150D02*
X14212372Y-9642674D01*
X14288563Y-9842674D02*
X14298087Y-9833150D01*
X14298087Y-9833150D02*
X14317134Y-9804579D01*
X14317134Y-9804579D02*
X14326658Y-9785531D01*
X14326658Y-9785531D02*
X14336182Y-9756960D01*
X14336182Y-9756960D02*
X14345706Y-9709341D01*
X14345706Y-9709341D02*
X14345706Y-9671246D01*
X14345706Y-9671246D02*
X14336182Y-9623627D01*
X14336182Y-9623627D02*
X14326658Y-9595055D01*
X14326658Y-9595055D02*
X14317134Y-9576008D01*
X14317134Y-9576008D02*
X14298087Y-9547436D01*
X14298087Y-9547436D02*
X14288563Y-9537912D01*
X14650468Y-9842674D02*
X14640944Y-9833150D01*
X14640944Y-9833150D02*
X14621896Y-9804579D01*
X14621896Y-9804579D02*
X14612372Y-9785531D01*
X14612372Y-9785531D02*
X14602849Y-9756960D01*
X14602849Y-9756960D02*
X14593325Y-9709341D01*
X14593325Y-9709341D02*
X14593325Y-9671246D01*
X14593325Y-9671246D02*
X14602849Y-9623627D01*
X14602849Y-9623627D02*
X14612372Y-9595055D01*
X14612372Y-9595055D02*
X14621896Y-9576008D01*
X14621896Y-9576008D02*
X14640944Y-9547436D01*
X14640944Y-9547436D02*
X14650468Y-9537912D01*
X14726658Y-9633150D02*
X14726658Y-9766484D01*
X14726658Y-9652198D02*
X14736182Y-9642674D01*
X14736182Y-9642674D02*
X14755230Y-9633150D01*
X14755230Y-9633150D02*
X14783801Y-9633150D01*
X14783801Y-9633150D02*
X14802849Y-9642674D01*
X14802849Y-9642674D02*
X14812372Y-9661722D01*
X14812372Y-9661722D02*
X14812372Y-9766484D01*
X14936182Y-9766484D02*
X14917134Y-9756960D01*
X14917134Y-9756960D02*
X14907611Y-9747436D01*
X14907611Y-9747436D02*
X14898087Y-9728389D01*
X14898087Y-9728389D02*
X14898087Y-9671246D01*
X14898087Y-9671246D02*
X14907611Y-9652198D01*
X14907611Y-9652198D02*
X14917134Y-9642674D01*
X14917134Y-9642674D02*
X14936182Y-9633150D01*
X14936182Y-9633150D02*
X14964753Y-9633150D01*
X14964753Y-9633150D02*
X14983801Y-9642674D01*
X14983801Y-9642674D02*
X14993325Y-9652198D01*
X14993325Y-9652198D02*
X15002849Y-9671246D01*
X15002849Y-9671246D02*
X15002849Y-9728389D01*
X15002849Y-9728389D02*
X14993325Y-9747436D01*
X14993325Y-9747436D02*
X14983801Y-9756960D01*
X14983801Y-9756960D02*
X14964753Y-9766484D01*
X14964753Y-9766484D02*
X14936182Y-9766484D01*
X15059992Y-9633150D02*
X15136182Y-9633150D01*
X15088563Y-9566484D02*
X15088563Y-9737912D01*
X15088563Y-9737912D02*
X15098087Y-9756960D01*
X15098087Y-9756960D02*
X15117134Y-9766484D01*
X15117134Y-9766484D02*
X15136182Y-9766484D01*
X15355230Y-9633150D02*
X15355230Y-9833150D01*
X15355230Y-9642674D02*
X15374277Y-9633150D01*
X15374277Y-9633150D02*
X15412373Y-9633150D01*
X15412373Y-9633150D02*
X15431420Y-9642674D01*
X15431420Y-9642674D02*
X15440944Y-9652198D01*
X15440944Y-9652198D02*
X15450468Y-9671246D01*
X15450468Y-9671246D02*
X15450468Y-9728389D01*
X15450468Y-9728389D02*
X15440944Y-9747436D01*
X15440944Y-9747436D02*
X15431420Y-9756960D01*
X15431420Y-9756960D02*
X15412373Y-9766484D01*
X15412373Y-9766484D02*
X15374277Y-9766484D01*
X15374277Y-9766484D02*
X15355230Y-9756960D01*
X15564753Y-9766484D02*
X15545706Y-9756960D01*
X15545706Y-9756960D02*
X15536182Y-9737912D01*
X15536182Y-9737912D02*
X15536182Y-9566484D01*
X15726658Y-9766484D02*
X15726658Y-9661722D01*
X15726658Y-9661722D02*
X15717134Y-9642674D01*
X15717134Y-9642674D02*
X15698087Y-9633150D01*
X15698087Y-9633150D02*
X15659992Y-9633150D01*
X15659992Y-9633150D02*
X15640944Y-9642674D01*
X15726658Y-9756960D02*
X15707611Y-9766484D01*
X15707611Y-9766484D02*
X15659992Y-9766484D01*
X15659992Y-9766484D02*
X15640944Y-9756960D01*
X15640944Y-9756960D02*
X15631420Y-9737912D01*
X15631420Y-9737912D02*
X15631420Y-9718865D01*
X15631420Y-9718865D02*
X15640944Y-9699817D01*
X15640944Y-9699817D02*
X15659992Y-9690293D01*
X15659992Y-9690293D02*
X15707611Y-9690293D01*
X15707611Y-9690293D02*
X15726658Y-9680770D01*
X15793325Y-9633150D02*
X15869515Y-9633150D01*
X15821896Y-9566484D02*
X15821896Y-9737912D01*
X15821896Y-9737912D02*
X15831420Y-9756960D01*
X15831420Y-9756960D02*
X15850468Y-9766484D01*
X15850468Y-9766484D02*
X15869515Y-9766484D01*
X16012373Y-9756960D02*
X15993325Y-9766484D01*
X15993325Y-9766484D02*
X15955230Y-9766484D01*
X15955230Y-9766484D02*
X15936182Y-9756960D01*
X15936182Y-9756960D02*
X15926658Y-9737912D01*
X15926658Y-9737912D02*
X15926658Y-9661722D01*
X15926658Y-9661722D02*
X15936182Y-9642674D01*
X15936182Y-9642674D02*
X15955230Y-9633150D01*
X15955230Y-9633150D02*
X15993325Y-9633150D01*
X15993325Y-9633150D02*
X16012373Y-9642674D01*
X16012373Y-9642674D02*
X16021896Y-9661722D01*
X16021896Y-9661722D02*
X16021896Y-9680770D01*
X16021896Y-9680770D02*
X15926658Y-9699817D01*
X16193325Y-9766484D02*
X16193325Y-9566484D01*
X16193325Y-9756960D02*
X16174277Y-9766484D01*
X16174277Y-9766484D02*
X16136182Y-9766484D01*
X16136182Y-9766484D02*
X16117134Y-9756960D01*
X16117134Y-9756960D02*
X16107611Y-9747436D01*
X16107611Y-9747436D02*
X16098087Y-9728389D01*
X16098087Y-9728389D02*
X16098087Y-9671246D01*
X16098087Y-9671246D02*
X16107611Y-9652198D01*
X16107611Y-9652198D02*
X16117134Y-9642674D01*
X16117134Y-9642674D02*
X16136182Y-9633150D01*
X16136182Y-9633150D02*
X16174277Y-9633150D01*
X16174277Y-9633150D02*
X16193325Y-9642674D01*
X16269515Y-9842674D02*
X16279039Y-9833150D01*
X16279039Y-9833150D02*
X16298087Y-9804579D01*
X16298087Y-9804579D02*
X16307611Y-9785531D01*
X16307611Y-9785531D02*
X16317134Y-9756960D01*
X16317134Y-9756960D02*
X16326658Y-9709341D01*
X16326658Y-9709341D02*
X16326658Y-9671246D01*
X16326658Y-9671246D02*
X16317134Y-9623627D01*
X16317134Y-9623627D02*
X16307611Y-9595055D01*
X16307611Y-9595055D02*
X16298087Y-9576008D01*
X16298087Y-9576008D02*
X16279039Y-9547436D01*
X16279039Y-9547436D02*
X16269515Y-9537912D01*
M02*
