%TF.GenerationSoftware,KiCad,Pcbnew,10.0.0*%
%TF.CreationDate,2026-06-29T16:39:17+05:30*%
%TF.ProjectId,attiny85,61747469-6e79-4383-952e-6b696361645f,rev?*%
%TF.SameCoordinates,Original*%
%TF.FileFunction,Copper,L2,Bot*%
%TF.FilePolarity,Positive*%
%FSLAX46Y46*%
G04 Gerber Fmt 4.6, Leading zero omitted, Abs format (unit mm)*
G04 Created by KiCad (PCBNEW 10.0.0) date 2026-06-29 16:39:17*
%MOMM*%
%LPD*%
G01*
G04 APERTURE LIST*
%TA.AperFunction,ComponentPad*%
%ADD10C,3.800000*%
%TD*%
%TA.AperFunction,ComponentPad*%
%ADD11R,1.700000X1.700000*%
%TD*%
%TA.AperFunction,ComponentPad*%
%ADD12O,1.700000X1.700000*%
%TD*%
%TA.AperFunction,ComponentPad*%
%ADD13C,1.600000*%
%TD*%
%TA.AperFunction,ComponentPad*%
%ADD14O,1.600000X1.600000*%
%TD*%
%TA.AperFunction,ComponentPad*%
%ADD15R,1.600000X1.600000*%
%TD*%
%TA.AperFunction,ComponentPad*%
%ADD16R,1.500000X1.500000*%
%TD*%
%TA.AperFunction,ComponentPad*%
%ADD17O,1.500000X1.500000*%
%TD*%
%TA.AperFunction,ComponentPad*%
%ADD18R,1.508000X1.508000*%
%TD*%
%TA.AperFunction,ComponentPad*%
%ADD19C,1.508000*%
%TD*%
%TA.AperFunction,ComponentPad*%
%ADD20O,3.150000X1.575000*%
%TD*%
%TA.AperFunction,Conductor*%
%ADD21C,0.250000*%
%TD*%
G04 APERTURE END LIST*
D10*
%TO.P,REF\u002A\u002A,1*%
%TO.N,N/C*%
X142125000Y-81850000D03*
%TD*%
D11*
%TO.P,J2,1,Pin_1*%
%TO.N,/GND*%
X137175000Y-77000000D03*
D12*
%TO.P,J2,2,Pin_2*%
%TO.N,/5V*%
X134635000Y-77000000D03*
%TO.P,J2,3,Pin_3*%
%TO.N,/GND*%
X137175000Y-79540000D03*
%TO.P,J2,4,Pin_4*%
%TO.N,/3V3*%
X134635000Y-79540000D03*
%TO.P,J2,5,Pin_5*%
%TO.N,/PB0*%
X137175000Y-82080000D03*
%TO.P,J2,6,Pin_6*%
%TO.N,/PB3*%
X134635000Y-82080000D03*
%TO.P,J2,7,Pin_7*%
%TO.N,/PB1*%
X137175000Y-84620000D03*
%TO.P,J2,8,Pin_8*%
%TO.N,/PB4*%
X134635000Y-84620000D03*
%TO.P,J2,9,Pin_9*%
%TO.N,/PB2*%
X137175000Y-87160000D03*
%TO.P,J2,10,Pin_10*%
%TO.N,/PB5*%
X134635000Y-87160000D03*
%TD*%
D13*
%TO.P,R4,1*%
%TO.N,/5V*%
X112375000Y-76700000D03*
D14*
%TO.P,R4,2*%
%TO.N,Net-(D3-Pad2)*%
X119995000Y-76700000D03*
%TD*%
D13*
%TO.P,R5,1*%
%TO.N,/PB1*%
X112375000Y-79720000D03*
D14*
%TO.P,R5,2*%
%TO.N,Net-(D4-Pad2)*%
X119995000Y-79720000D03*
%TD*%
D13*
%TO.P,R1,1*%
%TO.N,Net-(D1-Pad1)*%
X102285000Y-76700000D03*
D14*
%TO.P,R1,2*%
%TO.N,/5V*%
X109905000Y-76700000D03*
%TD*%
D15*
%TO.P,U1,1,~{RESET}/PB5*%
%TO.N,/PB5*%
X122985000Y-79550000D03*
D14*
%TO.P,U1,2,XTAL1/PB3*%
%TO.N,/PB3*%
X122985000Y-82090000D03*
%TO.P,U1,3,XTAL2/PB4*%
%TO.N,/PB4*%
X122985000Y-84630000D03*
%TO.P,U1,4,GND*%
%TO.N,/GND*%
X122985000Y-87170000D03*
%TO.P,U1,5,AREF/PB0*%
%TO.N,/PB0*%
X130605000Y-87170000D03*
%TO.P,U1,6,PB1*%
%TO.N,/PB1*%
X130605000Y-84630000D03*
%TO.P,U1,7,PB2*%
%TO.N,/PB2*%
X130605000Y-82090000D03*
%TO.P,U1,8,VCC*%
%TO.N,/5V*%
X130605000Y-79550000D03*
%TD*%
D16*
%TO.P,D1,1,K*%
%TO.N,Net-(D1-Pad1)*%
X102285000Y-87550000D03*
D17*
%TO.P,D1,2,A*%
%TO.N,/GND*%
X109905000Y-87550000D03*
%TD*%
D18*
%TO.P,J1,1,VBUS*%
%TO.N,/5V*%
X99822500Y-85455750D03*
D19*
%TO.P,J1,2,D-*%
%TO.N,Net-(D1-Pad1)*%
X99822500Y-82955750D03*
%TO.P,J1,3,D+*%
%TO.N,Net-(D2-Pad1)*%
X99822500Y-80955750D03*
%TO.P,J1,4,GND*%
%TO.N,/GND*%
X99822500Y-78455750D03*
D20*
%TO.P,J1,S1*%
%TO.N,N/C*%
X97722500Y-87655750D03*
%TO.P,J1,S2*%
X97722500Y-76255750D03*
%TD*%
D13*
%TO.P,R3,1*%
%TO.N,/PB3*%
X109895000Y-79700000D03*
D14*
%TO.P,R3,2*%
%TO.N,Net-(D1-Pad1)*%
X102275000Y-79700000D03*
%TD*%
D13*
%TO.P,R2,1*%
%TO.N,/PB4*%
X109895000Y-82800000D03*
D14*
%TO.P,R2,2*%
%TO.N,Net-(D2-Pad1)*%
X102275000Y-82800000D03*
%TD*%
D16*
%TO.P,D2,1,K*%
%TO.N,Net-(D2-Pad1)*%
X102285000Y-85400000D03*
D17*
%TO.P,D2,2,A*%
%TO.N,/GND*%
X109905000Y-85400000D03*
%TD*%
%TO.N,Net-(D1-Pad1)*%
D21*
X102275000Y-76710000D02*
X102285000Y-76700000D01*
X103400000Y-86435000D02*
X103400000Y-80825000D01*
X102275000Y-79700000D02*
X102275000Y-76710000D01*
X103400000Y-80825000D02*
X102275000Y-79700000D01*
X102285000Y-87550000D02*
X103400000Y-86435000D01*
X99822500Y-82955750D02*
X102275000Y-80503250D01*
X102275000Y-80503250D02*
X102275000Y-79700000D01*
%TO.N,/PB1*%
X133235000Y-83400000D02*
X132005000Y-84630000D01*
X132005000Y-84630000D02*
X130605000Y-84630000D01*
X135955000Y-83400000D02*
X133235000Y-83400000D01*
X137175000Y-84620000D02*
X135955000Y-83400000D01*
%TO.N,/PB3*%
X122985000Y-82090000D02*
X112285000Y-82090000D01*
X134635000Y-81989009D02*
X130595991Y-77950000D01*
X122985000Y-82090000D02*
X121860000Y-80965000D01*
X112285000Y-82090000D02*
X109895000Y-79700000D01*
X134635000Y-82080000D02*
X134635000Y-81989009D01*
X122335000Y-77950000D02*
X121860000Y-78425000D01*
X130595991Y-77950000D02*
X122335000Y-77950000D01*
X121860000Y-78425000D02*
X121860000Y-80965000D01*
%TO.N,/PB4*%
X126855000Y-88500000D02*
X122985000Y-84630000D01*
X135810000Y-85795000D02*
X134635000Y-84620000D01*
X135810000Y-87646701D02*
X135810000Y-85795000D01*
X111725000Y-84630000D02*
X109895000Y-82800000D01*
X126855000Y-88500000D02*
X134956701Y-88500000D01*
X122985000Y-84630000D02*
X111725000Y-84630000D01*
X134956701Y-88500000D02*
X135810000Y-87646701D01*
%TO.N,/PB5*%
X129285000Y-85850000D02*
X133325000Y-85850000D01*
X122985000Y-79550000D02*
X129285000Y-85850000D01*
X133325000Y-85850000D02*
X134635000Y-87160000D01*
%TO.N,/5V*%
X101085000Y-89000000D02*
X103485000Y-89000000D01*
X107285000Y-85200000D02*
X107285000Y-79310000D01*
X99822500Y-85455750D02*
X99822500Y-87737500D01*
X103485000Y-89000000D02*
X107285000Y-85200000D01*
X109905000Y-76700000D02*
X107295000Y-79310000D01*
X99822500Y-87737500D02*
X101085000Y-89000000D01*
X107295000Y-79310000D02*
X107285000Y-79310000D01*
%TD*%
M02*
