%TF.GenerationSoftware,KiCad,Pcbnew,10.0.0*%
%TF.CreationDate,2026-06-29T16:39:17+05:30*%
%TF.ProjectId,attiny85,61747469-6e79-4383-952e-6b696361645f,rev?*%
%TF.SameCoordinates,Original*%
%TF.FileFunction,Soldermask,Top*%
%TF.FilePolarity,Negative*%
%FSLAX46Y46*%
G04 Gerber Fmt 4.6, Leading zero omitted, Abs format (unit mm)*
G04 Created by KiCad (PCBNEW 10.0.0) date 2026-06-29 16:39:17*
%MOMM*%
%LPD*%
G01*
G04 APERTURE LIST*
G04 Aperture macros list*
%AMRoundRect*
0 Rectangle with rounded corners*
0 $1 Rounding radius*
0 $2 $3 $4 $5 $6 $7 $8 $9 X,Y pos of 4 corners*
0 Add a 4 corners polygon primitive as box body*
4,1,4,$2,$3,$4,$5,$6,$7,$8,$9,$2,$3,0*
0 Add four circle primitives for the rounded corners*
1,1,$1+$1,$2,$3*
1,1,$1+$1,$4,$5*
1,1,$1+$1,$6,$7*
1,1,$1+$1,$8,$9*
0 Add four rect primitives between the rounded corners*
20,1,$1+$1,$2,$3,$4,$5,0*
20,1,$1+$1,$4,$5,$6,$7,0*
20,1,$1+$1,$6,$7,$8,$9,0*
20,1,$1+$1,$8,$9,$2,$3,0*%
G04 Aperture macros list end*
%ADD10C,3.800000*%
%ADD11R,1.700000X1.700000*%
%ADD12O,1.700000X1.700000*%
%ADD13C,1.600000*%
%ADD14O,1.600000X1.600000*%
%ADD15RoundRect,0.250001X0.462499X0.624999X-0.462499X0.624999X-0.462499X-0.624999X0.462499X-0.624999X0*%
%ADD16R,1.600000X1.600000*%
%ADD17R,1.500000X1.500000*%
%ADD18O,1.500000X1.500000*%
%ADD19C,1.250000*%
%ADD20R,1.508000X1.508000*%
%ADD21C,1.508000*%
%ADD22O,3.150000X1.575000*%
%ADD23R,2.000000X1.500000*%
%ADD24R,2.000000X3.800000*%
G04 APERTURE END LIST*
D10*
%TO.C,REF\u002A\u002A*%
X142125000Y-81850000D03*
%TD*%
D11*
%TO.C,J2*%
X137175000Y-77000000D03*
D12*
X134635000Y-77000000D03*
X137175000Y-79540000D03*
X134635000Y-79540000D03*
X137175000Y-82080000D03*
X134635000Y-82080000D03*
X137175000Y-84620000D03*
X134635000Y-84620000D03*
X137175000Y-87160000D03*
X134635000Y-87160000D03*
%TD*%
D13*
%TO.C,R4*%
X112375000Y-76700000D03*
D14*
X119995000Y-76700000D03*
%TD*%
D15*
%TO.C,D4*%
X125372500Y-76300000D03*
X122397500Y-76300000D03*
%TD*%
D13*
%TO.C,R5*%
X112375000Y-79720000D03*
D14*
X119995000Y-79720000D03*
%TD*%
D13*
%TO.C,R1*%
X102285000Y-76700000D03*
D14*
X109905000Y-76700000D03*
%TD*%
D16*
%TO.C,U1*%
X122985000Y-79550000D03*
D14*
X122985000Y-82090000D03*
X122985000Y-84630000D03*
X122985000Y-87170000D03*
X130605000Y-87170000D03*
X130605000Y-84630000D03*
X130605000Y-82090000D03*
X130605000Y-79550000D03*
%TD*%
D15*
%TO.C,D3*%
X131072500Y-76300000D03*
X128097500Y-76300000D03*
%TD*%
D17*
%TO.C,D1*%
X102285000Y-87550000D03*
D18*
X109905000Y-87550000D03*
%TD*%
D19*
%TO.C,J1*%
X97722500Y-79705750D03*
X97722500Y-84205750D03*
D20*
X99822500Y-85455750D03*
D21*
X99822500Y-82955750D03*
X99822500Y-80955750D03*
X99822500Y-78455750D03*
D22*
X97722500Y-87655750D03*
X97722500Y-76255750D03*
%TD*%
D23*
%TO.C,U2*%
X119185000Y-87450000D03*
D24*
X112885000Y-85150000D03*
D23*
X119185000Y-85150000D03*
X119185000Y-82850000D03*
%TD*%
D13*
%TO.C,R3*%
X109895000Y-79700000D03*
D14*
X102275000Y-79700000D03*
%TD*%
D13*
%TO.C,R2*%
X109895000Y-82800000D03*
D14*
X102275000Y-82800000D03*
%TD*%
D17*
%TO.C,D2*%
X102285000Y-85400000D03*
D18*
X109905000Y-85400000D03*
%TD*%
M02*
