%TF.GenerationSoftware,KiCad,Pcbnew,10.0.0*%
%TF.CreationDate,2026-06-29T16:39:17+05:30*%
%TF.ProjectId,attiny85,61747469-6e79-4383-952e-6b696361645f,rev?*%
%TF.SameCoordinates,Original*%
%TF.FileFunction,Soldermask,Bot*%
%TF.FilePolarity,Negative*%
%FSLAX46Y46*%
G04 Gerber Fmt 4.6, Leading zero omitted, Abs format (unit mm)*
G04 Created by KiCad (PCBNEW 10.0.0) date 2026-06-29 16:39:17*
%MOMM*%
%LPD*%
G01*
G04 APERTURE LIST*
%ADD10C,3.800000*%
%ADD11R,1.700000X1.700000*%
%ADD12O,1.700000X1.700000*%
%ADD13C,1.600000*%
%ADD14O,1.600000X1.600000*%
%ADD15R,1.600000X1.600000*%
%ADD16R,1.500000X1.500000*%
%ADD17O,1.500000X1.500000*%
%ADD18C,1.250000*%
%ADD19R,1.508000X1.508000*%
%ADD20C,1.508000*%
%ADD21O,3.150000X1.575000*%
G04 APERTURE END LIST*
D10*
%TO.C,REF\u002A\u002A*%
X142125000Y-81850000D03*
%TD*%
D11*
%TO.C,J2*%
X137175000Y-77000000D03*
D12*
X134635000Y-77000000D03*
X137175000Y-79540000D03*
X134635000Y-79540000D03*
X137175000Y-82080000D03*
X134635000Y-82080000D03*
X137175000Y-84620000D03*
X134635000Y-84620000D03*
X137175000Y-87160000D03*
X134635000Y-87160000D03*
%TD*%
D13*
%TO.C,R4*%
X112375000Y-76700000D03*
D14*
X119995000Y-76700000D03*
%TD*%
D13*
%TO.C,R5*%
X112375000Y-79720000D03*
D14*
X119995000Y-79720000D03*
%TD*%
D13*
%TO.C,R1*%
X102285000Y-76700000D03*
D14*
X109905000Y-76700000D03*
%TD*%
D15*
%TO.C,U1*%
X122985000Y-79550000D03*
D14*
X122985000Y-82090000D03*
X122985000Y-84630000D03*
X122985000Y-87170000D03*
X130605000Y-87170000D03*
X130605000Y-84630000D03*
X130605000Y-82090000D03*
X130605000Y-79550000D03*
%TD*%
D16*
%TO.C,D1*%
X102285000Y-87550000D03*
D17*
X109905000Y-87550000D03*
%TD*%
D18*
%TO.C,J1*%
X97722500Y-79705750D03*
X97722500Y-84205750D03*
D19*
X99822500Y-85455750D03*
D20*
X99822500Y-82955750D03*
X99822500Y-80955750D03*
X99822500Y-78455750D03*
D21*
X97722500Y-87655750D03*
X97722500Y-76255750D03*
%TD*%
D13*
%TO.C,R3*%
X109895000Y-79700000D03*
D14*
X102275000Y-79700000D03*
%TD*%
D13*
%TO.C,R2*%
X109895000Y-82800000D03*
D14*
X102275000Y-82800000D03*
%TD*%
D16*
%TO.C,D2*%
X102285000Y-85400000D03*
D17*
X109905000Y-85400000D03*
%TD*%
M02*
