M48
; DRILL file KiCad 10.0.0 date 2026-06-29T16:39:25
; FORMAT={-:-/ absolute / metric / decimal}
; #@! TF.CreationDate,2026-06-29T16:39:25+05:30
; #@! TF.GenerationSoftware,Kicad,Pcbnew,10.0.0
; #@! TF.FileFunction,Plated,1,2,PTH
FMAT,2
METRIC
; #@! TA.AperFunction,Plated,PTH,ComponentDrill
T1C0.750
; #@! TA.AperFunction,Plated,PTH,ComponentDrill
T2C0.800
; #@! TA.AperFunction,Plated,PTH,ComponentDrill
T3C1.000
; #@! TA.AperFunction,Plated,PTH,ComponentDrill
T4C1.050
; #@! TA.AperFunction,Plated,PTH,ComponentDrill
T5C2.200
%
G90
G05
T1
X102.285Y-85.4
X102.285Y-87.55
X109.905Y-85.4
X109.905Y-87.55
T2
X102.275Y-79.7
X102.275Y-82.8
X102.285Y-76.7
X109.895Y-79.7
X109.895Y-82.8
X109.905Y-76.7
X112.375Y-76.7
X112.375Y-79.72
X119.995Y-76.7
X119.995Y-79.72
X122.985Y-79.55
X122.985Y-82.09
X122.985Y-84.63
X122.985Y-87.17
X130.605Y-79.55
X130.605Y-82.09
X130.605Y-84.63
X130.605Y-87.17
T3
X99.822Y-78.456
X99.822Y-80.956
X99.822Y-82.956
X99.822Y-85.456
X134.635Y-77.0
X134.635Y-79.54
X134.635Y-82.08
X134.635Y-84.62
X134.635Y-87.16
X137.175Y-77.0
X137.175Y-79.54
X137.175Y-82.08
X137.175Y-84.62
X137.175Y-87.16
T5
X142.125Y-81.85
T4
G00X98.498Y-76.256
M15
G01X96.947Y-76.256
M16
G05
G00X98.498Y-87.656
M15
G01X96.947Y-87.656
M16
G05
M30
